<svg width="18" height="18" viewBox="0 0 18 18" fill="none" xmlns="http://www.w3.org/2000/svg">
<path d="M16.2228 12.3381H5.75498L6.28057 11.2676L15.0134 11.2518C15.3087 11.2518 15.5618 11.0408 15.6145 10.749L16.8239 3.97969C16.8556 3.80215 16.8081 3.61934 16.6921 3.48047C16.6347 3.41213 16.5632 3.35707 16.4825 3.31913C16.4017 3.28119 16.3137 3.26127 16.2245 3.26074L5.11514 3.22383L5.02021 2.77734C4.96045 2.49258 4.70381 2.28516 4.41201 2.28516H1.69619C1.53162 2.28516 1.37379 2.35053 1.25743 2.4669C1.14106 2.58327 1.07568 2.7411 1.07568 2.90566C1.07568 3.07023 1.14106 3.22806 1.25743 3.34443C1.37379 3.4608 1.53162 3.52617 1.69619 3.52617H3.90928L4.32412 5.49844L5.34541 10.4432L4.03057 12.5895C3.96228 12.6816 3.92116 12.791 3.91184 12.9054C3.90252 13.0197 3.92538 13.1343 3.97783 13.2363C4.0833 13.4455 4.296 13.5773 4.53154 13.5773H5.63545C5.40011 13.8899 5.27299 14.2706 5.27334 14.6619C5.27334 15.6568 6.08193 16.4654 7.07685 16.4654C8.07178 16.4654 8.88037 15.6568 8.88037 14.6619C8.88037 14.2699 8.75029 13.8885 8.51826 13.5773H11.3501C11.1148 13.8899 10.9876 14.2706 10.988 14.6619C10.988 15.6568 11.7966 16.4654 12.7915 16.4654C13.7864 16.4654 14.595 15.6568 14.595 14.6619C14.595 14.2699 14.4649 13.8885 14.2329 13.5773H16.2245C16.5655 13.5773 16.845 13.2996 16.845 12.9568C16.844 12.7924 16.778 12.6351 16.6614 12.5192C16.5448 12.4033 16.3872 12.3382 16.2228 12.3381ZM5.37354 4.44727L15.495 4.48066L14.5036 10.0318L6.55303 10.0459L5.37354 4.44727ZM7.07685 15.2174C6.771 15.2174 6.52139 14.9678 6.52139 14.6619C6.52139 14.3561 6.771 14.1064 7.07685 14.1064C7.38271 14.1064 7.63232 14.3561 7.63232 14.6619C7.63232 14.8092 7.5738 14.9505 7.46963 15.0547C7.36546 15.1589 7.22417 15.2174 7.07685 15.2174ZM12.7915 15.2174C12.4856 15.2174 12.236 14.9678 12.236 14.6619C12.236 14.3561 12.4856 14.1064 12.7915 14.1064C13.0974 14.1064 13.347 14.3561 13.347 14.6619C13.347 14.8092 13.2884 14.9505 13.1843 15.0547C13.0801 15.1589 12.9388 15.2174 12.7915 15.2174Z" fill="#595959"/>
</svg>
