<svg width="24" height="24" viewBox="0 0 24 24" fill="none" xmlns="http://www.w3.org/2000/svg">
<path fill-rule="evenodd" clip-rule="evenodd" d="M20.1429 10.5125L20.9129 16.5025C21.4839 20.4125 19.2129 22.0025 16.1629 22.0025H7.87293C4.81393 22.0025 2.47293 20.9025 3.10293 16.5025L3.88293 10.5125C4.00293 9.6225 4.43293 8.7925 5.10293 8.1825C5.61393 7.7335 6.27293 7.4925 6.95293 7.4925V7.2625C6.87293 5.4125 7.82393 3.6625 9.42293 2.7125C11.0229 1.7625 13.0229 1.7625 14.6229 2.7125C16.2229 3.6625 17.1629 5.4125 17.0929 7.2625V7.4925C18.3529 7.4925 19.6829 8.3725 20.1429 10.5125ZM8.47293 7.2625C8.47293 5.3225 10.0529 3.7425 12.0029 3.7425C13.9629 3.7425 15.5429 5.3225 15.5429 7.2625V7.4835H8.47293V7.2625ZM8.20293 11.5925C8.20293 12.0725 8.60293 12.4725 9.09293 12.4725C9.58293 12.4725 9.97293 12.0725 9.97293 11.5925C9.97293 11.1025 9.58293 10.7125 9.09293 10.7125C8.60293 10.7125 8.20293 11.1025 8.20293 11.5925ZM14.8929 12.4725C15.1229 12.4725 15.3529 12.3825 15.5129 12.2125C15.6829 12.0525 15.7729 11.8225 15.7729 11.5925C15.7729 11.1025 15.3729 10.7125 14.8929 10.7125C14.4039 10.7125 14.0029 11.1025 14.0029 11.5925C14.0029 12.0725 14.4039 12.4725 14.8929 12.4725Z" fill="#41417A"/>
</svg>
