<svg width="24" height="24" viewBox="0 0 24 24" fill="none" xmlns="http://www.w3.org/2000/svg">
<path fill-rule="evenodd" clip-rule="evenodd" d="M12.0007 2C14.6497 2 17.1997 3.05 19.0697 4.93C20.9497 6.811 22.0007 9.35 22.0007 12.01C22.0007 15.51 20.1597 18.76 17.1597 20.57C14.1597 22.38 10.4297 22.48 7.33073 20.83H7.29973C7.12857 20.7613 6.97641 20.6631 6.82506 20.5654C6.71203 20.4925 6.59944 20.4199 6.47973 20.36C6.17073 20.23 5.81973 20.21 5.50073 20.311C4.75973 20.57 4.00973 20.78 3.23973 20.96C2.83973 20.97 2.71973 20.73 2.71973 20.34C2.89973 19.55 3.13973 18.769 3.42073 18.01C3.52973 17.68 3.50073 17.33 3.33073 17.019L3.13073 16.63C2.38973 15.22 2.00073 13.65 2.00073 12.061V12C2.00073 9.35 3.04973 6.8 4.92973 4.93C6.80973 3.05 9.34973 2 12.0007 2ZM7.38973 13.29C6.67973 13.29 6.10973 12.71 6.10973 12.01C6.10973 11.3 6.67973 10.73 7.38973 10.73C8.08973 10.73 8.67073 11.3 8.67073 12.01C8.67073 12.71 8.08973 13.29 7.38973 13.29ZM10.7197 12.01C10.7197 12.71 11.2907 13.29 12.0007 13.29C12.7107 13.29 13.2797 12.71 13.2797 12.01C13.2797 11.3 12.7107 10.73 12.0007 10.73C11.2907 10.73 10.7197 11.3 10.7197 12.01ZM15.3307 12.01C15.3307 12.71 15.9097 13.29 16.6097 13.29C17.3197 13.29 17.8897 12.71 17.8897 12.01C17.8897 11.3 17.3197 10.73 16.6097 10.73C15.9097 10.73 15.3307 11.3 15.3307 12.01Z" fill="#41417A"/>
</svg>
