<svg width="24" height="24" viewBox="0 0 24 24" fill="none" xmlns="http://www.w3.org/2000/svg">
<path fill-rule="evenodd" clip-rule="evenodd" d="M6.44954 3.67821C10.4095 1.03821 15.6885 1.55921 19.0695 4.91821C20.9585 6.80921 22.0085 9.36821 21.9985 12.0382C21.9795 16.7982 18.5985 20.8882 13.9285 21.8092C9.24854 22.7292 4.56954 20.2182 2.75854 15.8092C0.938537 11.4082 2.47954 6.32821 6.44954 3.67821ZM14.2185 13.8582L15.7685 8.91821C15.8095 8.80921 15.8095 8.68821 15.7685 8.57821C15.7295 8.43821 15.6285 8.31821 15.4985 8.24821C15.3695 8.18821 15.2185 8.16821 15.0795 8.2182L10.1385 9.7782C9.96854 9.82821 9.83854 9.9682 9.78954 10.1382L8.21854 15.0782C8.18854 15.1782 8.18854 15.2882 8.21854 15.3882C8.25854 15.5282 8.35954 15.6482 8.48954 15.7182C8.62854 15.7982 8.77954 15.8092 8.91854 15.7682L13.8595 14.2082C14.0295 14.1582 14.1595 14.0282 14.2185 13.8582Z" fill="#41417A"/>
</svg>
