<svg width="24" height="24" viewBox="0 0 24 24" fill="none" xmlns="http://www.w3.org/2000/svg">
<path fill-rule="evenodd" clip-rule="evenodd" d="M19.6538 8.6537C19.0531 9.25443 18.7528 9.55479 18.3832 9.58278C18.3329 9.58659 18.2824 9.58659 18.2322 9.58278C17.8626 9.55479 17.5623 9.25443 16.9615 8.6537L15.3462 7.03831C14.7454 6.43758 14.4451 6.13721 14.4171 5.76768C14.4133 5.7174 14.4133 5.66691 14.4171 5.61663C14.4451 5.2471 14.7454 4.94673 15.3462 4.346C15.9469 3.74527 16.2473 3.44491 16.6168 3.41692C16.6671 3.41311 16.7176 3.41311 16.7678 3.41692C17.1374 3.44491 17.4377 3.74527 18.0385 4.346L19.6538 5.96139C20.2546 6.56212 20.5549 6.86248 20.5829 7.23202C20.5867 7.28229 20.5867 7.33279 20.5829 7.38307C20.5549 7.7526 20.2546 8.05296 19.6538 8.6537ZM5 20.9998C4.05719 20.9998 3.58579 20.9998 3.29289 20.707C3 20.4141 3 19.9427 3 18.9998V17.3483C3 16.9395 3 16.7352 3.07612 16.5514C3.15224 16.3676 3.29676 16.2231 3.58579 15.9341L11.1058 8.41406C11.7725 7.7474 12.1058 7.41406 12.52 7.41406C12.9342 7.41406 13.2675 7.7474 13.9342 8.41406L15.5858 10.0656C16.2525 10.7323 16.5858 11.0656 16.5858 11.4798C16.5858 11.8941 16.2525 12.2274 15.5858 12.8941L8.06579 20.4141C7.77676 20.7031 7.63224 20.8476 7.44847 20.9237C7.2647 20.9998 7.06032 20.9998 6.65157 20.9998H5Z" fill="#41417A"/>
</svg>
