<svg width="24" height="24" viewBox="0 0 24 24" fill="none" xmlns="http://www.w3.org/2000/svg">
<path fill-rule="evenodd" clip-rule="evenodd" d="M2.42641 7.0037C2.38395 7.15655 2.31803 7.30164 2.2495 7.4449C2.08898 7.78045 2.00005 8.15056 2 8.53905C2 9.49769 2.54123 10.3426 3.36368 10.8396V17.9123C3.36368 19.6177 4.77044 21.0002 6.50576 21.0002H10.0304C10.6477 21.0003 11.1493 20.5108 11.1538 19.9043L11.1782 19.8963V17.1443C11.1782 16.4418 11.7577 15.8724 12.4725 15.8724H15.0854C15.4287 15.8724 15.7579 16.0064 16.0006 16.2449C16.2434 16.4835 16.3797 16.807 16.3797 17.1443V19.8963C16.3775 20.1883 16.4941 20.4691 16.7035 20.6764C16.9128 20.8837 17.1977 21.0002 17.4949 21.0002C18.3275 21.0024 19.1267 20.6788 19.7162 20.101C20.3057 19.5232 20.637 18.7385 20.637 17.9203V10.8391C21.4591 10.3419 22 9.49728 22 8.53891V8.53725C21.9997 8.14953 21.911 7.78045 21.7509 7.4455C21.6825 7.30247 21.6167 7.15761 21.5743 7.00504L20.8293 4.32297C20.6123 3.54167 19.8947 3.00024 19.0762 3.00024H4.92423C4.10571 3.00024 3.38809 3.54167 3.17106 4.32297L2.42641 7.0037ZM5.63649 13.8002C5.63649 13.3031 6.04351 12.9002 6.54561 12.9002H8.36385C8.86595 12.9002 9.27297 13.3031 9.27297 13.8002V15.6001C9.27297 16.0972 8.86595 16.5001 8.36385 16.5001H6.54561C6.04351 16.5001 5.63649 16.0972 5.63649 15.6001V13.8002Z" fill="#41417A"/>
</svg>
