<svg width="24" height="24" viewBox="0 0 24 24" fill="none" xmlns="http://www.w3.org/2000/svg">
<path d="M20.4893 3.51112C15.8071 -1.17009 8.19257 -1.17009 3.51038 3.51112C-1.1698 8.19233 -1.1698 15.8089 3.51038 20.4901C5.85147 22.8302 8.9259 23.9997 12.0004 23.9997C15.0748 23.9997 18.1482 22.8301 20.4893 20.4901C25.1705 15.8089 25.1705 8.19233 20.4893 3.51112ZM16.9517 15.5378C17.3428 15.9289 17.3428 16.5612 16.9517 16.9524C16.7566 17.1475 16.5005 17.2456 16.2443 17.2456C15.9882 17.2456 15.7321 17.1475 15.537 16.9524L12.0003 13.4147L8.46467 16.9514C8.26859 17.1465 8.01244 17.2445 7.75732 17.2445C7.50122 17.2445 7.24507 17.1465 7.04997 16.9514C6.65881 16.5602 6.65881 15.9269 7.04997 15.5367L10.5856 12.0001L7.04899 8.46344C6.65782 8.07227 6.65782 7.43898 7.04899 7.0488C7.43917 6.65763 8.07247 6.65763 8.46364 7.0488L12.0003 10.5854L15.5369 7.0488C15.9281 6.65763 16.5604 6.65763 16.9516 7.0488C17.3427 7.43898 17.3427 8.07227 16.9516 8.46344L13.4149 12.0001L16.9517 15.5378Z" fill="#F5222D"/>
</svg>

