<svg width="32" height="32" viewBox="0 0 32 32" fill="none" xmlns="http://www.w3.org/2000/svg">
<rect width="32" height="32" fill="#F0F0FF"/>
<path fill-rule="evenodd" clip-rule="evenodd" d="M22.3495 10.3728C22.3495 13.6639 19.7552 16.3318 16.555 16.3318C13.3547 16.3318 10.7604 13.6639 10.7604 10.3728C10.7604 7.08176 13.3547 4.41382 16.555 4.41382C19.7552 4.41382 22.3495 7.08176 22.3495 10.3728ZM21.5286 19.6893C23.371 20.0624 24.5738 20.671 25.0893 21.6527C25.4765 22.4189 25.4765 23.331 25.0893 24.0972C24.5738 25.0789 23.4187 25.7269 21.5095 26.0606C20.6587 26.2322 19.7975 26.3437 18.932 26.3944C18.1301 26.4828 17.3282 26.4828 16.5168 26.4828H15.0562C14.7507 26.4435 14.4548 26.4239 14.1684 26.4239C13.3028 26.3794 12.4415 26.2711 11.5909 26.0999C9.74853 25.7465 8.54571 25.1182 8.03021 24.1365C7.83121 23.7562 7.7263 23.3314 7.72473 22.8995C7.72058 22.465 7.82232 22.0364 8.02066 21.6527C8.52661 20.671 9.72944 20.0329 11.5909 19.6893C12.4452 19.5216 13.3095 19.4134 14.178 19.3653C15.7666 19.2373 17.3625 19.2373 18.9511 19.3653C19.8162 19.4158 20.6771 19.524 21.5286 19.6893Z" fill="#8887B1"/>
<path fill-rule="evenodd" clip-rule="evenodd" d="M24.9217 16.943C25.2989 16.943 25.6754 16.9962 26.0335 17.1163C28.2396 17.8335 29.0345 20.2542 28.3705 22.3701C27.9939 23.4513 27.3783 24.4381 26.572 25.2444C25.4178 26.3621 24.1513 27.3543 22.7879 28.209L22.6385 28.2993L22.4831 28.2031C21.115 27.3543 19.8413 26.3621 18.6763 25.2385C17.8754 24.4322 17.2592 23.4513 16.8767 22.3701C16.2013 20.2542 16.9962 17.8335 19.2262 17.1037C19.3996 17.044 19.5783 17.0021 19.7576 16.9788H19.8293C19.9973 16.9543 20.164 16.943 20.3314 16.943H20.3971C20.7737 16.9543 21.1383 17.0201 21.4915 17.1402H21.5268C21.5507 17.1516 21.5686 17.1641 21.5806 17.1755C21.7127 17.2179 21.8376 17.2657 21.9571 17.3315L22.1843 17.4331C22.2391 17.4624 22.3007 17.5071 22.354 17.5457C22.3877 17.5702 22.4181 17.5923 22.4413 17.6064C22.451 17.6122 22.4609 17.618 22.4709 17.6238C22.5222 17.6537 22.5756 17.6849 22.6206 17.7194C23.2846 17.2119 24.0909 16.937 24.9217 16.943ZM26.5116 21.2464C26.7567 21.2398 26.9659 21.0432 26.9838 20.7916V20.7204C27.0017 19.8831 26.4943 19.1246 25.7227 18.8317C25.4776 18.7474 25.2086 18.8795 25.119 19.1306C25.0353 19.3816 25.1668 19.6565 25.4178 19.7456C25.801 19.889 26.0574 20.2662 26.0574 20.684V20.7025C26.046 20.8394 26.0873 20.9715 26.1709 21.0731C26.2546 21.1747 26.3801 21.2339 26.5116 21.2464Z" fill="#FFD213"/>
</svg>
