<svg width="24" height="24" viewBox="0 0 24 24" fill="none" xmlns="http://www.w3.org/2000/svg">
<path fill-rule="evenodd" clip-rule="evenodd" d="M19.7353 11.0614C19.2043 12.0004 19.5352 13.1894 20.4853 13.7314C21.4443 14.2804 21.7743 15.4814 21.2353 16.4304L20.5543 17.5614C20.1943 18.1804 19.5243 18.5614 18.8043 18.5614C18.4443 18.5614 18.0843 18.4704 17.7853 18.2904C17.4643 18.1204 17.1153 18.0204 16.7643 18.0204C16.2243 18.0204 15.7043 18.2314 15.3253 18.6104C14.9343 18.9814 14.7243 19.4904 14.7243 20.0204C14.7243 21.1104 13.8153 22.0004 12.6843 22.0004H11.3153C10.7743 22.0004 10.2643 21.7804 9.89425 21.4104C9.51425 21.0304 9.31525 20.5304 9.31525 20.0104C9.31525 18.9104 8.41425 18.0204 7.28525 18.0204C6.91425 18.0204 6.55425 18.1204 6.24425 18.3114C5.77425 18.5704 5.21425 18.6404 4.69425 18.5104C4.17425 18.3704 3.72425 18.0304 3.45425 17.5804L2.81525 16.4504C2.51425 15.9814 2.42425 15.4204 2.56525 14.8904C2.70425 14.3604 3.06525 13.9104 3.55425 13.6404C3.86525 13.4704 4.12425 13.2204 4.30425 12.9104C4.82525 11.9704 4.49425 10.7904 3.55425 10.2404C2.60425 9.70036 2.27425 8.51036 2.81525 7.57036L3.45425 6.45036C3.72425 5.98136 4.17425 5.64036 4.70425 5.50036C5.23525 5.36036 5.79425 5.43936 6.26425 5.71036C6.58425 5.88036 6.93425 5.97036 7.28525 5.97036C7.82525 5.97036 8.34425 5.76036 8.72425 5.39036C9.10425 5.02036 9.31525 4.51036 9.31525 3.99036C9.31525 2.89036 10.2243 2.00036 11.3543 2.00036H12.7143C13.2643 1.99036 13.7853 2.18936 14.1743 2.57036C14.5653 2.93936 14.7743 3.45036 14.7743 3.99036C14.7743 5.09036 15.6843 5.98136 16.8153 5.98136C17.1643 5.98136 17.5143 5.88036 17.8253 5.71036C18.7943 5.18936 20.0043 5.52036 20.5543 6.45036L21.2353 7.62036C21.4053 7.92036 21.5043 8.26036 21.5043 8.61036C21.5043 9.32036 21.1152 9.98136 20.4853 10.3304C20.1742 10.5004 19.9143 10.7604 19.7353 11.0614ZM12.0353 14.7604C12.7853 14.7704 13.4853 14.4814 14.0143 13.9604C14.5443 13.4504 14.8443 12.7504 14.8443 12.0204C14.8543 10.9104 14.1643 9.90036 13.1153 9.48136C12.0653 9.05036 10.8543 9.28036 10.0443 10.0704C9.24425 10.8504 8.99425 12.0404 9.43425 13.0614C9.86525 14.0904 10.8843 14.7604 12.0243 14.7604H12.0353Z" fill="#41417A"/>
</svg>
