<svg width="24" height="24" viewBox="0 0 24 24" fill="none" xmlns="http://www.w3.org/2000/svg">
<path d="M17.92 14.3202C17.66 14.5702 17.54 14.9392 17.601 15.2902L18.49 20.2102C18.561 20.6302 18.391 21.0492 18.04 21.2902C17.7 21.5402 17.25 21.5702 16.87 21.3702L12.441 19.0602C12.28 18.9802 12.11 18.9292 11.941 18.9292H11.67C11.57 18.9392 11.481 18.9802 11.4 19.0192L6.96995 21.3402C6.74995 21.4502 6.49995 21.4902 6.25995 21.4502C5.65995 21.3302 5.27095 20.7692 5.36995 20.1792L6.25995 15.2592C6.31995 14.9002 6.19995 14.5402 5.94095 14.2802L2.32995 10.7802C2.02995 10.4802 1.91995 10.0492 2.06095 9.65024C2.19095 9.25924 2.52995 8.96924 2.94995 8.90024L7.91995 8.17924C8.29995 8.13924 8.62995 7.91024 8.79995 7.57024L10.99 3.08024C11.04 2.98024 11.11 2.88924 11.191 2.81024L11.28 2.74024C11.32 2.68924 11.38 2.65024 11.441 2.61024L11.55 2.57024L11.72 2.50024H12.141C12.521 2.54024 12.851 2.76924 13.021 3.09924L15.24 7.57024C15.4 7.90024 15.71 8.12024 16.07 8.17924L21.04 8.90024C21.46 8.96024 21.811 9.25024 21.95 9.65024C22.08 10.0492 21.97 10.4902 21.66 10.7802L17.92 14.3202Z" fill="#41417A"/>
</svg>
