<svg width="24" height="24" viewBox="0 0 24 24" fill="none" xmlns="http://www.w3.org/2000/svg">
<path d="M7.24481 14.7815L10.2379 10.8914L13.6521 13.5733L16.5812 9.79297" stroke="#41417A" stroke-width="1.5" stroke-linecap="round" stroke-linejoin="round"/>
<path fill-rule="evenodd" clip-rule="evenodd" d="M19.9954 6.12247C21.057 6.12247 21.9176 5.26187 21.9176 4.20027C21.9176 3.13867 21.057 2.27808 19.9954 2.27808C18.9338 2.27808 18.0732 3.13867 18.0732 4.20027C18.0732 5.26187 18.9338 6.12247 19.9954 6.12247Z" stroke="#41417A" stroke-width="1.5" stroke-linecap="round" stroke-linejoin="round"/>
<path d="M14.9245 3.12012H7.65673C4.64529 3.12012 2.77802 5.25284 2.77802 8.26428V16.3467C2.77802 19.3581 4.60868 21.4817 7.65673 21.4817H16.2609C19.2723 21.4817 21.1396 19.3581 21.1396 16.3467V9.30776" stroke="#41417A" stroke-width="1.5" stroke-linecap="round" stroke-linejoin="round"/>
</svg>
