<svg width="24" height="24" viewBox="0 0 24 24" fill="none" xmlns="http://www.w3.org/2000/svg">
<path d="M7.26381 9.30396C7.42334 9.30396 7.53729 9.38499 7.60566 9.54705L9.48964 14.0747C9.51496 14.143 9.52763 14.2089 9.52763 14.2722C9.52763 14.4191 9.47698 14.5444 9.37569 14.6482C9.27187 14.752 9.14779 14.804 9.00345 14.804C8.7553 14.804 8.58564 14.6824 8.49448 14.4393L8.2058 13.7024H6.31423L6.03315 14.4393C5.94199 14.6824 5.77233 14.804 5.52417 14.804C5.37983 14.804 5.25702 14.752 5.15573 14.6482C5.05191 14.5444 5 14.4191 5 14.2722C5 14.2089 5.01266 14.143 5.03798 14.0747L6.92196 9.54705C6.99033 9.38499 7.10428 9.30396 7.26381 9.30396ZM6.65608 12.8136H7.86395L7.26381 11.2563L6.65608 12.8136Z" fill="#41417A"/>
<path d="M11.5105 13.6948H11.9739C12.4677 13.6948 12.8665 13.548 13.1704 13.2542C13.4768 12.9554 13.63 12.5553 13.63 12.054C13.63 11.5526 13.4768 11.1525 13.1704 10.8537C12.8665 10.5599 12.4677 10.4131 11.9739 10.4131H11.5105V13.6948ZM11.9511 9.39512C12.7437 9.39512 13.4021 9.63694 13.9262 10.1206C14.4681 10.6194 14.7391 11.2639 14.7391 12.054C14.7391 12.844 14.4681 13.4885 13.9262 13.9873C13.4021 14.471 12.7437 14.7128 11.9511 14.7128H10.9559C10.804 14.7128 10.6736 14.6584 10.5647 14.5495C10.4558 14.4406 10.4014 14.3102 10.4014 14.1582V9.94967C10.4014 9.79774 10.4558 9.66733 10.5647 9.55844C10.6736 9.44956 10.804 9.39512 10.9559 9.39512H11.9511Z" fill="#41417A"/>
<path d="M15.3888 13.6872C15.3888 13.5505 15.4356 13.434 15.5293 13.3378C15.623 13.2416 15.7382 13.1935 15.875 13.1935C16.0117 13.1935 16.1282 13.2416 16.2244 13.3378C16.5156 13.6366 16.8347 13.786 17.1816 13.786C17.3892 13.786 17.5614 13.724 17.6982 13.5999C17.8298 13.4783 17.8957 13.3302 17.8957 13.1555C17.8957 12.9605 17.8362 12.7984 17.7171 12.6693C17.5905 12.5351 17.3664 12.4009 17.0448 12.2667C16.589 12.0818 16.2573 11.8653 16.0497 11.6171C15.8319 11.3589 15.723 11.0411 15.723 10.6638C15.723 10.2814 15.8598 9.96107 16.1332 9.70278C16.4194 9.4369 16.7866 9.30396 17.2348 9.30396C17.7412 9.30396 18.1692 9.45842 18.5186 9.76735C18.6199 9.85345 18.6705 9.975 18.6705 10.132C18.6705 10.2611 18.625 10.37 18.5338 10.4587C18.4401 10.5498 18.3287 10.5954 18.1995 10.5954C18.0957 10.5954 18.0046 10.5675 17.9261 10.5118C17.7361 10.3852 17.5412 10.3219 17.3411 10.3219C17.1866 10.3219 17.0651 10.3523 16.9765 10.4131C16.8802 10.4814 16.8321 10.5777 16.8321 10.7017C16.8321 10.8436 16.8891 10.9638 17.0031 11.0626C17.117 11.1639 17.331 11.2791 17.645 11.4082C18.1084 11.5982 18.4515 11.8374 18.6743 12.1261C18.8946 12.4148 19.0048 12.768 19.0048 13.1859C19.0048 13.6594 18.8516 14.043 18.5452 14.3368C18.2211 14.6482 17.7792 14.804 17.2196 14.804C16.898 14.804 16.5865 14.7369 16.2852 14.6026C15.994 14.4735 15.7458 14.295 15.5407 14.0671C15.4394 13.9481 15.3888 13.8215 15.3888 13.6872Z" fill="#41417A"/>
<path d="M19 3H5C3.89543 3 3 3.89543 3 5V19C3 20.1046 3.89543 21 5 21H19C20.1046 21 21 20.1046 21 19V5C21 3.89543 20.1046 3 19 3Z" stroke="#41417A" stroke-width="1.5" stroke-linecap="round" stroke-linejoin="round"/>
</svg>
