<svg width="24" height="24" viewBox="0 0 24 24" fill="none" xmlns="http://www.w3.org/2000/svg">
<path fill-rule="evenodd" clip-rule="evenodd" d="M21.524 9.75296C20.8849 5.81957 17.5439 2.89333 13.5606 2.77814C13.3712 2.77071 13.1867 2.8389 13.0476 2.96767C12.9085 3.09645 12.8264 3.27523 12.8192 3.46464V3.46464V3.52871L13.2677 10.2381C13.2971 10.6897 13.6854 11.0331 14.1373 11.007L20.865 10.5585C21.0545 10.5444 21.2307 10.4554 21.3544 10.3111C21.4781 10.1668 21.5392 9.97906 21.524 9.78958V9.75296Z" stroke="#41417A" stroke-width="1.5" stroke-linecap="round" stroke-linejoin="round"/>
<path d="M8.90163 6.76901C9.32959 6.67002 9.76753 6.88899 9.94511 7.29075C9.99163 7.38525 10.0196 7.48778 10.0275 7.59281C10.119 8.89258 10.3112 11.7393 10.4211 13.277C10.4398 13.554 10.5682 13.8121 10.7778 13.9942C10.9874 14.1763 11.2609 14.2674 11.5378 14.2473V14.2473L17.1854 13.8994C17.4375 13.8843 17.6847 13.974 17.8684 14.1473C18.0522 14.3207 18.1561 14.5622 18.1556 14.8148V14.8148C17.9268 18.2252 15.4765 21.0762 12.1393 21.8152C8.80214 22.5542 5.3773 21.0042 3.73001 18.0093C3.23826 17.1473 2.92684 16.1944 2.81467 15.2084C2.76672 14.9058 2.74833 14.5992 2.75975 14.293C2.76947 10.651 5.32726 7.51297 8.89248 6.76901" stroke="#41417A" stroke-width="1.5" stroke-linecap="round" stroke-linejoin="round"/>
</svg>
