<svg width="24" height="24" viewBox="0 0 24 24" fill="none" xmlns="http://www.w3.org/2000/svg">
<path d="M2.42641 7.00346C2.38395 7.1563 2.31803 7.3014 2.2495 7.44466C2.08898 7.7802 2.00005 8.15031 2 8.53881C2 9.49744 2.54123 10.3423 3.36368 10.8394V17.9121C3.36368 19.6175 4.77044 21 6.50576 21H10.0304C10.6477 21 11.1493 20.5106 11.1538 19.904V17.1441C11.1538 16.4416 11.7577 15.8721 12.4725 15.8721H15.0854C15.4287 15.8721 15.7579 16.0061 16.0006 16.2447C16.2434 16.4832 16.3797 16.8067 16.3797 17.1441V19.896C16.3775 20.1881 16.4941 20.4689 16.7035 20.6762C16.9128 20.8834 17.1977 21 17.4949 21C18.3275 21.0021 19.1267 20.6786 19.7162 20.1007C20.3057 19.5229 20.637 18.7383 20.637 17.9201V10.8388C21.4591 10.3417 22 9.49703 22 8.53866V8.537C21.9997 8.14929 21.911 7.78021 21.7509 7.44525C21.6825 7.30222 21.6167 7.15736 21.5743 7.00479L20.8293 4.32272C20.6123 3.54143 19.8947 3 19.0762 3H4.92423C4.10571 3 3.38809 3.54143 3.17106 4.32272L2.42641 7.00346Z" stroke="#41417A" stroke-width="1.5"/>
</svg>
