<svg width="24" height="24" viewBox="0 0 24 24" fill="none" xmlns="http://www.w3.org/2000/svg">
<path d="M20.6763 8.82113V7.76192C20.6788 6.70588 20.2604 5.6924 19.5136 4.94567C18.7669 4.19894 17.7534 3.78052 16.6974 3.78297H15.9329" stroke="#41417A" stroke-width="1.5" stroke-linecap="round" stroke-linejoin="round"/>
<path d="M4.09736 8.82112V7.76191C4.09492 6.70747 4.51207 5.69539 5.25681 4.94892C6.00154 4.20246 7.01266 3.78296 8.0671 3.78296H8.86841" stroke="#41417A" stroke-width="1.5" stroke-linecap="round" stroke-linejoin="round"/>
<path d="M20.6763 12.8645V16.3829C20.6788 17.439 20.2604 18.4524 19.5136 19.1992C18.7669 19.9459 17.7534 20.3643 16.6974 20.3619H15.9329" stroke="#41417A" stroke-width="1.5" stroke-linecap="round" stroke-linejoin="round"/>
<path d="M4.09736 12.8645V16.3829C4.09491 17.439 4.51333 18.4524 5.26006 19.1992C6.00679 19.9459 7.02028 20.3643 8.07631 20.3619H8.86841" stroke="#41417A" stroke-width="1.5" stroke-linecap="round" stroke-linejoin="round"/>
<path d="M22.454 12.8646H2.2829" stroke="#4C4C7C" stroke-width="1.5" stroke-linecap="round" stroke-linejoin="round"/>
</svg>
