<svg width="24" height="24" viewBox="0 0 24 24" fill="none" xmlns="http://www.w3.org/2000/svg">
<path d="M14.5 22H5C4.46957 22 3.96086 21.7893 3.58579 21.4142C3.21071 21.0391 3 20.5304 3 20V6L6 2H18L21 6V9" stroke="#41417A" stroke-width="1.5" stroke-linecap="round" stroke-linejoin="round"/>
<path d="M3 6H21" stroke="#41417A" stroke-width="1.5" stroke-linecap="round" stroke-linejoin="round"/>
<path d="M16 10C16 11.0609 15.5786 12.0783 14.8284 12.8284C14.0783 13.5786 13.0609 14 12 14C10.9391 14 9.92172 13.5786 9.17157 12.8284C8.42143 12.0783 8 11.0609 8 10" stroke="#41417A" stroke-width="1.5" stroke-linecap="round" stroke-linejoin="round"/>
<path d="M18 15.4481C18 15.2081 18.092 15.0361 18.276 14.9321L20.76 13.5281L20.808 13.5041L20.856 13.4801C20.892 13.4641 20.928 13.4561 20.964 13.4561C21.056 13.4561 21.132 13.4881 21.192 13.5521C21.256 13.6121 21.288 13.6881 21.288 13.7801V21.4481C21.288 21.6401 21.22 21.8041 21.084 21.9401C20.948 22.0761 20.784 22.1441 20.592 22.1441C20.4 22.1441 20.236 22.0761 20.1 21.9401C19.964 21.8041 19.896 21.6401 19.896 21.4481V15.4241L18.9 15.9521C18.812 16.0081 18.708 16.0361 18.588 16.0361C18.42 16.0361 18.28 15.9801 18.168 15.8681C18.056 15.7561 18 15.6161 18 15.4481Z" fill="#41417A"/>
</svg>
